<svg id="Layer_1" data-name="Layer 1" xmlns="http://www.w3.org/2000/svg" viewBox="0 0 95.07 100"><defs><style>.cls-1{fill:#231f20;}</style></defs><path class="cls-1" d="M49.72,100a51,51,0,0,1-19-3.56A48.24,48.24,0,0,1,4,70.55,49.86,49.86,0,0,1,0,50.27V50A50.26,50.26,0,0,1,3.9,30.14,48,48,0,0,1,14.72,14.25,49.83,49.83,0,0,1,31,3.77,52.84,52.84,0,0,1,51,0,54.45,54.45,0,0,1,65.55,1.85,47.84,47.84,0,0,1,77.6,7a43.23,43.23,0,0,1,9.59,7.87,52.82,52.82,0,0,1,7.19,10.07L67.94,40.41A25.89,25.89,0,0,0,61.16,32q-4-3.22-10.61-3.22a16.26,16.26,0,0,0-7.4,1.64,17,17,0,0,0-5.62,4.52,21.76,21.76,0,0,0-3.63,6.71,25.25,25.25,0,0,0-1.3,8.09V50a27.11,27.11,0,0,0,1.3,8.56,19.81,19.81,0,0,0,3.7,6.71,17.11,17.11,0,0,0,5.69,4.39,16.57,16.57,0,0,0,7.26,1.57q6.84,0,11-3.35a30.29,30.29,0,0,0,7.12-8.7L95.07,74.11A61,61,0,0,1,88,84.18a43.25,43.25,0,0,1-9.66,8.22A49.5,49.5,0,0,1,65.69,98,57.54,57.54,0,0,1,49.72,100Z"/></svg>