<svg id="Layer_1" data-name="Layer 1" xmlns="http://www.w3.org/2000/svg" viewBox="0 0 590.3 93.98"><defs><style>.cls-1{fill:#fff;}</style></defs><polygon class="cls-1" points="219.41 5.33 217.66 0.69 216.34 0.69 216.34 6.28 217.14 6.28 217.14 1.45 217.15 1.45 219 6.28 219.78 6.28 221.63 1.45 221.65 1.45 221.65 6.28 222.45 6.28 222.45 0.69 221.13 0.69 219.41 5.33"/><path class="cls-1" d="M212.38,87.26a10.19,10.19,0,0,1-2.94-6.86V.7H179.15V64.44c-.37,6-6.29,7.58-9.57,7.48-4.7-.15-7.42-2.78-7.42-7.29V.73h-29.5v0c-6.9,0-12.32,0-20.79,0C95.72.73,80.47,3.2,75.34,16.59l-3-11.88a6.22,6.22,0,0,0-5.81-4H13.72c-.76,0-1,.23-.63.77,0,0,1.43,1.37,4,4.33,3.6,4.1,2.19,9.59,2.19,9.59L0,92.39H28.1l4.06-16.91H59.28l4.23,16.91h37c15.18,0,27.54-1.54,33.65-11,4.56,8.62,14.36,12.68,31.65,11.19,6-.52,11.94-3.34,14.48-7.8l1.16,3.71a6.39,6.39,0,0,0,6,3.89h28.29c.76,0,1-.22.63-.76C216.4,91.62,214.89,90,212.38,87.26ZM68.84,17.31a.62.62,0,0,1,.78-.08l5.06,3.07v.07c-.17.79-.32,1.6-.43,2.41l0,.2h0L68.9,18a.57.57,0,0,1-.2-.36A.52.52,0,0,1,68.84,17.31Zm-5.13,6.57a.63.63,0,0,1,.75-.2l9.47,3.79v.32A29.29,29.29,0,0,0,74.09,31l0,.21L63.9,24.6a.57.57,0,0,1-.26-.33A.5.5,0,0,1,63.71,23.88Zm-3.8,7.27a.59.59,0,0,1,.7-.3l14,3.11,0,.07a21.65,21.65,0,0,0,1.56,4.55l.12.25-16-7a.52.52,0,0,1-.31-.27A.48.48,0,0,1,59.91,31.15ZM36.45,58.9l9.37-37.64L55.24,58.9ZM114,71.35c-2.71,2.46-7.73,3.67-13.1,3.15a20.4,20.4,0,0,1-6.29-1.89s-11.37,14-11.37,14a.63.63,0,0,1-.77.18.49.49,0,0,1-.27-.33.46.46,0,0,1,.05-.38l7.8-15.69a.36.36,0,0,0,0-.11.24.24,0,0,0-.11-.15.23.23,0,0,0-.27.05L75.93,82.13a.65.65,0,0,1-.79.06.53.53,0,0,1-.21-.35.47.47,0,0,1,.1-.34L85.79,67.21a.22.22,0,0,0,0-.11s0-.06-.07-.14a.19.19,0,0,0-.26,0l-15.9,9.62a.64.64,0,0,1-.8-.07.47.47,0,0,1-.13-.36.62.62,0,0,1,.2-.38L82.22,63.41a.1.1,0,0,0,0-.09.17.17,0,0,0,0-.15.19.19,0,0,0-.26,0l-17.52,7a.63.63,0,0,1-.77-.19.54.54,0,0,1-.06-.39.57.57,0,0,1,.27-.34l15.53-10.1a.16.16,0,0,0,.1-.11.09.09,0,0,0,0-.1c0-.09-.11-.13-.27-.1L60.62,63a.64.64,0,0,1-.72-.32.47.47,0,0,1,0-.37.64.64,0,0,1,.33-.3l17.28-7.55a.14.14,0,0,0,.1-.07.2.2,0,0,0,0-.13c0-.09-.12-.13-.23-.12L58.23,55.33a.62.62,0,0,1-.65-.42.48.48,0,0,1,.09-.37.45.45,0,0,1,.33-.22l18.54-4.76a.13.13,0,0,0,.1-.06.13.13,0,0,0,0-.13.18.18,0,0,0-.19-.14l-19.13-1.8a.59.59,0,0,1-.4-.17.51.51,0,0,1-.15-.35.56.56,0,0,1,.56-.52l19.15-1.8a.17.17,0,0,0,.2-.15.13.13,0,0,0,0-.1s-.09-.06-.15-.07L58.05,39.51a.56.56,0,0,1-.37-.23.45.45,0,0,1-.08-.37.58.58,0,0,1,.64-.42L76.7,39.65l0,.05c4.75,8.62,14.72,12,23.51,15.06h0c8.53,2.92,15.9,5.46,15.89,12A6,6,0,0,1,114,71.35Zm27.16,10.86a.62.62,0,0,1-.77,0L136,78.39l0-.07a23.9,23.9,0,0,0,.86-2.32l.06-.19,4.27,5.68a.58.58,0,0,1,.12.36A.5.5,0,0,1,141.17,82.21Zm6.34-5.68a.61.61,0,0,1-.77.08L138,71.33v-.07c.18-1.16.32-2.37.4-3.62v-.21l9,8.38a.57.57,0,0,1,.18.34A.52.52,0,0,1,147.51,76.53ZM152.64,70a.62.62,0,0,1-.75.21L138.52,64.8v-.71a27.17,27.17,0,0,0-.27-3.88l0-.23,14.25,9.27a.61.61,0,0,1,.25.32A.5.5,0,0,1,152.64,70Zm6.75-22.67a.56.56,0,0,1-.4.17l-19.13,1.79a.19.19,0,0,0-.19.16.18.18,0,0,0,0,.12.31.31,0,0,0,.13.06l18.49,4.75a.52.52,0,0,1,.35.23.48.48,0,0,1,.09.37.58.58,0,0,1-.63.42L139,54.15a.19.19,0,0,0-.23.11.22.22,0,0,0,0,.14.2.2,0,0,0,.1.08L156.12,62a.55.55,0,0,1,.3.28.46.46,0,0,1,0,.38.58.58,0,0,1-.68.32l-17.71-4,0-.06c-1.16-5.75-4.4-10.39-9.9-14.17-4.79-3.31-10.64-5.52-15.8-7.47A61.46,61.46,0,0,1,102,32.75c-3-1.88-4.41-3.92-4.41-6.4a6.06,6.06,0,0,1,1.8-4.49c2.08-2,5.86-3,11-2.9h.21a31.39,31.39,0,0,1,11,2.48L133.1,7.22a.64.64,0,0,1,.77-.17.55.55,0,0,1,.27.33.54.54,0,0,1-.06.39l-7.85,15.79a.25.25,0,0,0,0,.12.19.19,0,0,0,.08.1.22.22,0,0,0,.26-.06l13.85-12a.62.62,0,0,1,.8-.06.46.46,0,0,1,.2.35.57.57,0,0,1-.13.38L130.49,26.71a.18.18,0,0,0-.05.12.14.14,0,0,0,.05.09.2.2,0,0,0,.26,0l16-9.69a.57.57,0,0,1,.75.09.48.48,0,0,1,.13.38.59.59,0,0,1-.18.35L134.07,30.48a.15.15,0,0,0-.06.09.23.23,0,0,0,0,.14.19.19,0,0,0,.25,0l17.6-7a.61.61,0,0,1,.76.2.43.43,0,0,1,.06.38.54.54,0,0,1-.26.33L136.87,34.76l-.1.1a.15.15,0,0,0,0,.13.21.21,0,0,0,.26.06l18.68-4.17a.62.62,0,0,1,.72.3.53.53,0,0,1,0,.39.55.55,0,0,1-.32.28l-17.31,7.56a.13.13,0,0,0-.09.07.15.15,0,0,0,0,.13.17.17,0,0,0,.21.11l19.19-1.2a.58.58,0,0,1,.65.42.43.43,0,0,1-.08.36.58.58,0,0,1-.37.24l-18.5,4.75a.12.12,0,0,0-.1.05.2.2,0,0,0,0,.13.16.16,0,0,0,.18.14L159,46.41a.61.61,0,0,1,.39.18h0a.51.51,0,0,1,.15.35A.49.49,0,0,1,159.39,47.29Z"/><path class="cls-1" d="M296.56,61.31c1.4.09,3.57.31,3.57,3.54V84.9l-21.52-24h-7.68v.44c1,.09,2.22.18,4.06,2.31,0,.09.13.13.17.18l1.22,1.39v23c0,3.35-2.22,3.53-3.53,3.57v.44h8.58v-.44c-1.3,0-3.53-.17-3.53-3.57V66.85L301.14,93h.52V64.85c0-3.23,2.13-3.45,3.57-3.54v-.43h-8.67Z"/><path class="cls-1" d="M253.52,53.18c1.81.1,4.51.44,4.51,4.62V78.51c0,1.15,0,4.35-1.54,6.61a11.11,11.11,0,0,1-9,4.73,9.48,9.48,0,0,1-8.92-5.78,17.26,17.26,0,0,1-1-6.5V57.8c0-4.19,2.64-4.52,4.46-4.63v-.55H227.08v.55c1.82.11,4.52.44,4.52,4.63v20c0,12.34,8.81,15,14,15A13.44,13.44,0,0,0,258,85.39h.11v6.83h10.35v-.55c-1.81-.06-4.51-.39-4.51-4.52V57.8c0-4.19,2.64-4.52,4.51-4.63v-.55H253.52Z"/><path class="cls-1" d="M237.64,40c-.94,0-3.31-.22-3.31-3.19a12.64,12.64,0,0,1,.66-3.31l2.92-9.09h12.72l3.31,9.75a8.36,8.36,0,0,1,.65,2.86c0,2.87-2.69,2.92-4,3v.55H266V40c-2.36-.33-4.29-1-6.05-6.17L248.48.45h-9.66V1c1.75.1,4.27.9,3.61,3.36l-9.75,30.31c-.83,2.54-2.37,5.18-5.62,5.4v.55h10.58ZM244,5.24h.11L250,22.53H238.52Z"/><path class="cls-1" d="M311.66,40.16c-1.31,0-3.53-.17-3.53-3.57V13.22c0-3.27,2.22-3.44,3.53-3.53V9.26H299.94v.43c1.35.09,3.53.26,3.53,3.53V36.59c0,3.35-2.23,3.52-3.53,3.57v.43h11.72Z"/><path class="cls-1" d="M322.21,10.82h14.17l-21.1,29.12v.65h27.38l.95-6.62h-.44c-.65,2-1.78,5.27-9.45,5.27H321.43l21.23-30H315.28v5.93h.48C316.24,11.61,318.24,10.82,322.21,10.82Z"/><path class="cls-1" d="M487.5,11h5.27V36.58c0,3.31-2.17,3.53-3.57,3.57v.44H501v-.44c-1.35,0-3.58-.17-3.58-3.57V11h5.28c2.31,0,5.71.3,6.06,4.36h.43V7.81h-.44a1.31,1.31,0,0,1-.95,1.09,13,13,0,0,1-4.1.35H486.5a16.66,16.66,0,0,1-4-.43c-.65-.31-.87-.48-1.05-1H481V15.4h.44C481.92,11.34,485,11,487.5,11Z"/><path class="cls-1" d="M411.63,40.59H420v-.44a2.37,2.37,0,0,1-2.62-2.52,10.08,10.08,0,0,1,.52-2.61l2.31-7.2h10.07l2.62,7.72a6.79,6.79,0,0,1,.52,2.26c0,2.27-2.14,2.31-3.14,2.35v.44h12.16v-.44c-1.88-.25-3.4-.78-4.79-4.88h0L428.59,8.82h-3.88l-8.63,27.07c-.65,2-1.87,4.09-4.45,4.26Zm13.42-28h.09l4.62,13.69H420.7Z"/><path class="cls-1" d="M271.55,13.35V36.58c0,2.44-1.13,3.57-3.53,3.57v.44h11.77v-.44c-2.18,0-3.53-1-3.53-3.66V25.64a8.5,8.5,0,0,1,3.75.7c2,1,4,4.23,4.05,4.32.18.26.18.3.22.35l4.18,6.36a.84.84,0,0,1,.14.22c.08.08.74,1,.91,1.22a14.78,14.78,0,0,0,1.4,1.78h7.41v-.43c-1.53-.31-3.27-1-5.62-4.8-.05-.08-.13-.17-.13-.21l-2.8-4.32-.21-.26c-1.92-2.79-3.45-4.93-6.06-5.71v-.09c4.66-.83,7.1-3.66,7.1-7.49a7.54,7.54,0,0,0-4.92-7.2c-1.22-.48-2.84-.83-6.89-.83H268v.44C269.29,9.69,271.55,9.91,271.55,13.35Zm4.71-2.66a9,9,0,0,1,2.66-.26c5.66,0,6.67,4.92,6.67,7.19,0,6.58-5.45,6.85-9.33,6.85h0Z"/><polygon class="cls-1" points="213 6.28 213.79 6.28 213.79 1.4 215.53 1.4 215.53 0.69 211.26 0.69 211.26 1.4 213 1.4 213 6.28"/><path class="cls-1" d="M589.86,35.53c-.78,2.92-2.22,3.89-5.18,3.89h-4.19c-3.27,0-3.22-2.1-3.22-3.41V25.42h6.19c2.35,0,3.79,1.18,4,3.31h.44V21h-.44c-.25,3.23-3.48,3.23-4.27,3.23h-5.88V10.43h7.41c2.61,0,4.27,1,4.27,3.92h.44V9.25H569v.44h.43c3.19,0,3.14,3.31,3.14,3.66V36.49c0,3.54-2.26,3.66-3.57,3.66v.44h20.36l.91-5.06Z"/><polygon class="cls-1" points="475.22 9.2 475.22 9.2 475.22 9.2 475.22 9.2"/><path class="cls-1" d="M459.58,40.43a16.24,16.24,0,0,0,6.16,1.16c3.25,0,5.89-.56,8.6-3.09A10.75,10.75,0,0,0,478,30.24c0-6.33-4.57-9.09-10.25-12.67C463.6,15,459.63,12.29,459.63,8c0-3.25,2.37-6.5,7-6.5,4.91,0,7.77,3.25,8.6,7.71h.54L476.2,0h-.55a1.6,1.6,0,0,1-1.49,1.32,8.77,8.77,0,0,1-2.25-.49,18,18,0,0,0-5.35-.77c-8.2,0-11.51,5.78-11.51,10.57,0,6.61,4.74,9.58,9.42,12.5C469.92,26.49,473,29.08,473,33a7.12,7.12,0,0,1-7.21,7,12.31,12.31,0,0,1-6.83-2.31,10.17,10.17,0,0,1-3.63-6.83h-.55L454.29,41h.55c.11-1.38,1-1.65,1.59-1.65S457.31,39.49,459.58,40.43Z"/><path class="cls-1" d="M439.78,61.31c1.35.09,3.53.27,3.53,3.54V88.21c0,3.35-2.23,3.53-3.53,3.57v.44H451.5v-.44c-1.31,0-3.53-.17-3.53-3.57V64.85c0-3.27,2.22-3.45,3.53-3.54v-.43H439.78Z"/><path class="cls-1" d="M425.87,74c-3.27-2-6.41-4.18-6.41-7.59A5.15,5.15,0,0,1,425,61.27c3.88,0,6.14,2.57,6.79,6.1h.44l.35-7.28h-.43a1.27,1.27,0,0,1-1.18,1,6.79,6.79,0,0,1-1.79-.39,14.4,14.4,0,0,0-4.23-.61c-6.49,0-9.1,4.58-9.1,8.37,0,5.23,3.74,7.58,7.45,9.89,4.32,2.66,6.71,4.71,6.71,7.85a5.63,5.63,0,0,1-5.71,5.53A9.71,9.71,0,0,1,418.9,90a8.08,8.08,0,0,1-2.88-5.4h-.43l-.35,8h.43c.09-1.09.79-1.31,1.27-1.31s.69.09,2.48.83a13,13,0,0,0,4.88.92,8.91,8.91,0,0,0,6.8-2.45A8.52,8.52,0,0,0,434,84C434,79,430.36,76.84,425.87,74Z"/><path class="cls-1" d="M564.88,7.81a1.33,1.33,0,0,1-1,1.09,13,13,0,0,1-4.1.35H542.61a16.61,16.61,0,0,1-4-.43c-.65-.31-.88-.48-1.05-1h-.44V15.4h.44c.48-4.06,3.53-4.36,6.06-4.36h5.27V36.58c0,3.31-2.17,3.53-3.57,3.57v.44h11.82v-.44c-1.36,0-3.58-.17-3.58-3.57V11h5.27c2.32,0,5.71.3,6.07,4.36h.43V7.81Z"/><path class="cls-1" d="M533.67,35.27,524.61,8.82h-3.88L512.1,35.89c-.65,2-1.87,4.09-4.44,4.26v.44H516v-.44a2.36,2.36,0,0,1-2.61-2.52,10.08,10.08,0,0,1,.52-2.61l2.32-7.2h10.06l2.61,7.72a6.65,6.65,0,0,1,.53,2.26c0,2.27-2.13,2.31-3.14,2.35v.44h12.16v-.44C536.59,39.9,535.07,39.37,533.67,35.27Zm-16.95-9,4.36-13.69h.09l4.61,13.69Z"/><path class="cls-1" d="M482.67,60.53a13.32,13.32,0,0,1-4.1.35H461.35a16.16,16.16,0,0,1-4-.44c-.65-.31-.88-.48-1-1h-.44V67h.44c.48-4,3.53-4.35,6.06-4.35h5.27V88.21c0,3.31-2.17,3.52-3.56,3.57v.44h11.81v-.44c-1.35,0-3.58-.18-3.58-3.57V62.67h5.28c2.31,0,5.71.3,6.06,4.35h.43V59.44h-.44A1.34,1.34,0,0,1,482.67,60.53Z"/><path class="cls-1" d="M407.2,87c0-.08-.13-.17-.13-.22l-2.78-4.31-.22-.26c-1.92-2.79-3.45-4.93-6.05-5.71V76.4c4.66-.83,7.1-3.67,7.1-7.5a7.54,7.54,0,0,0-4.93-7.2c-1.22-.47-2.83-.82-6.89-.82H382.5v.43c1.31,0,3.57.22,3.57,3.67V88.21c0,2.43-1.13,3.57-3.53,3.57v.44h11.77v-.44c-2.18,0-3.53-1-3.53-3.66V77.27a8.39,8.39,0,0,1,3.75.69c2,1,4,4.24,4.05,4.32.17.26.17.3.22.35L403,89a.71.71,0,0,1,.13.22c.09.09.74,1,.91,1.22a16.13,16.13,0,0,0,1.4,1.79h7.41v-.44C411.31,91.47,409.56,90.73,407.2,87ZM390.77,76.09V62.32a9,9,0,0,1,2.66-.26c5.67,0,6.67,4.92,6.67,7.19C400.1,75.83,394.65,76.09,390.77,76.09Z"/><path class="cls-1" d="M506.43,61.31c.7,0,2.61.13,2.61,1.62a7.81,7.81,0,0,1-1.43,3.27.89.89,0,0,1-.13.17l-5.23,8-5.59-8.81a6,6,0,0,1-1-2.48c0-1.75,1.75-1.75,2.52-1.75v-.43H485.55v.44a5.19,5.19,0,0,1,4.36,2.31c.87,1.22,1,1.35,1,1.44s.13.13.13.17l7.2,11.16V88.21c0,3.26-2.06,3.57-3.54,3.57v.44h11.72v-.44c-1.95,0-3.53-.3-3.53-3.57v-12l6.46-9.9c.13-.22,2.26-3.4,3.83-4.31a6.26,6.26,0,0,1,2.71-.66v-.43h-9.46Z"/><path class="cls-1" d="M361.14,8.51a16.49,16.49,0,0,0-16.48,16.56c0,9.41,7.63,16.3,16.74,16.3A16.09,16.09,0,0,0,377.79,25C377.79,14.83,369.64,8.51,361.14,8.51Zm.57,31.69c-7.5,0-11.55-7.23-11.55-16,0-11.9,6.36-14.69,10.37-14.69,6.5,0,11.68,6.36,11.68,16.21C372.21,34,368.42,40.2,361.71,40.2Z"/><path class="cls-1" d="M309.25,61.31c1.36.09,3.53.27,3.53,3.54V88.21c0,3.35-2.22,3.53-3.53,3.57v.44H321v-.44c-1.3,0-3.53-.17-3.53-3.57V64.85c0-3.27,2.23-3.45,3.53-3.54v-.43H309.25Z"/><path class="cls-1" d="M380.07,40.15v.44h8.59v-.44c-1.31,0-3.54-.17-3.54-3.57V15.23l23.24,26.15h.52V13.22c0-3.23,2.13-3.45,3.57-3.53V9.25h-8.67v.44c1.4.08,3.57.3,3.57,3.53V33.27h0l-21.53-24h-7.67v.44c1,.08,2.22.17,4.06,2.31,0,.08.13.13.17.17l1.22,1.4v23C383.6,39.94,381.38,40.11,380.07,40.15Z"/><path class="cls-1" d="M372.06,91h-4.18c-3.26,0-3.22-2.09-3.22-3.4V77.05h6.18c2.36,0,3.8,1.18,4,3.31h.44V72.65h-.44c-.26,3.22-3.49,3.22-4.27,3.22h-5.88V62.06h7.4c2.62,0,4.28,1,4.28,3.92h.43v-5.1H356.41v.43h.44C360,61.31,360,64.63,360,65V88.12c0,3.54-2.27,3.66-3.57,3.66v.44h20.35l.92-5.06h-.44C376.47,90.09,375,91,372.06,91Z"/><path class="cls-1" d="M344.61,61.31c.95,0,2.87.13,2.87,2.44a12.79,12.79,0,0,1-.7,3.23,2,2,0,0,0-.13.35l-6,17.52-7-17.52a14,14,0,0,1-1-3.49c0-2.53,2.22-2.53,3.09-2.53v-.43H323.33v.43c2.75.44,3.4,1.83,4.27,3.62a1.53,1.53,0,0,1,.18.39,1,1,0,0,1,.18.35L339,93h.35l9-25.68c0-.09.48-1.26.57-1.43,1.56-4.06,3.26-4.45,4.7-4.58v-.44h-9Z"/></svg>