<svg id="Layer_1" data-name="Layer 1" xmlns="http://www.w3.org/2000/svg" viewBox="0 0 590.3 124.2"><defs><style>.cls-1{fill:#fff;}</style></defs><path class="cls-1" d="M52,116.6A26,26,0,0,1,38.5,113c.1,6.2,6.2,11.2,13.6,11.2s13.5-5,13.6-11.2a26,26,0,0,1-13.5,3.6Z"/><path class="cls-1" d="M98.4,53.5a5.59,5.59,0,0,0,5.6-5.6C104.1,26.1,82.7,0,52.2,0A52.23,52.23,0,0,0,31.1,100c.4,6,9.3,10.8,20.2,10.8h1.5c10.7,0,19.6-4.7,20.2-10.6A53.12,53.12,0,0,0,96.1,81.7c4.6-7.2,6.2-14.6,3.2-19.9a8.38,8.38,0,0,0-7.6-4.1H79.3c-1.7,0-3.2-6.5-4-9.4a63.72,63.72,0,0,0-2.8-9c-1.8-4.1-4.3-6.2-7.4-6.2s-5.6,2.1-7.4,6.2a68.09,68.09,0,0,0-2.8,9,67.13,67.13,0,0,1-2.6,8.4c-.6-.8-2-6-2.6-8.4a63.72,63.72,0,0,0-2.8-9c-1.8-4.1-4.3-6.2-7.4-6.2s-5.6,2.1-7.4,6.2a68.09,68.09,0,0,0-2.8,9c-.7,2.8-2.1,8-3.2,9.4a3.93,3.93,0,0,0,.6,7.8c3.1,0,5.6-2.1,7.4-6.2a68.09,68.09,0,0,0,2.8-9c.6-2.4,2.1-7.7,2.6-8.4.6.9,2,6,2.6,8.4a63.72,63.72,0,0,0,2.8,9c1.8,4.1,4.3,6.2,7.4,6.2s5.6-2.1,7.4-6.2a68.09,68.09,0,0,0,2.8-9c.5-2.3,2-7.7,2.5-8.3.5.6,2,6,2.6,8.4a63.72,63.72,0,0,0,2.8,9c1.8,4.1,4.3,6.2,7.4,6.2H88c2.8,0,4.1,1.6,3.2,3.8A40,40,0,0,1,67.7,91.5c-.4,6.4-4.9,10.7-15.6,10.7S36.8,97.8,36.5,91.4A38.37,38.37,0,0,1,16.4,73.9c-6.8-12.7-4.1-20-4.7-22.3a15.49,15.49,0,0,1-.1-8.6c1.4-5.4,4.9-9.3,8-8.9-3.5-2.5-1.9-8.3,2.1-12.2,3.7-3.6,8.6-4.8,11.2-2.8-1.9-4,2.6-8.1,8-9.4s10.5.4,11.3,3.8c.8-3.4,5.9-5.1,11.3-3.8s9.9,5.6,8,9.4c2.6-2,7.5-.9,11.2,2.8,4,3.9,5.6,9.7,2.1,12.2,3.1-.4,6.5,3.1,7.8,8a18.92,18.92,0,0,1,.4,5.7A5.33,5.33,0,0,0,98.4,53.5Z"/><path class="cls-1" d="M188.2,37.4c8.3,0,12.7,4.4,12.7,12.7V89.2c0,.5,12.8.5,12.8,0V49.6c0-15.8-7.9-23.9-23.5-23.9a56.68,56.68,0,0,0-21.5,4l-.4.2-.3-.2c-3.6-2.6-8.5-3.9-14.9-3.9a56.07,56.07,0,0,0-22.2,4.1c-3.5,1.5-4.4,2.7-4.4,6.4V89.2c0,.5,12.8.5,12.8,0V41.1a2.28,2.28,0,0,1,1.4-2.2,31.11,31.11,0,0,1,10.2-1.5c8.4,0,12.9,4.4,12.9,12.7V89.2c0,.5,12.8.5,12.8,0V49.6a25.2,25.2,0,0,0-1.3-9l-.3-.7.7-.3A42,42,0,0,1,188.2,37.4Z"/><path class="cls-1" d="M224.1,27.5V89.2c0,.5,12.8.5,12.8,0V27.5C237,27,224.1,27,224.1,27.5Z"/><path class="cls-1" d="M273.8,37.4c9.4,0,14.2,4.3,14.2,12.9v39c0,.5,12.8.5,12.8,0V49.9c0-16-8.4-24.1-25-24.1a66.12,66.12,0,0,0-24.1,4.1c-3.6,1.5-4.3,2.6-4.3,6.4V89.2c0,.5,12.8.5,12.8,0V41a2,2,0,0,1,1.3-1.9A44.59,44.59,0,0,1,273.8,37.4Z"/><path class="cls-1" d="M334.3,25.8c-16.4,0-25.1,8.7-25.1,25.1V67.8c0,16.1,8.8,24.2,26.1,24.2a61.83,61.83,0,0,0,22.9-3.9c3.8-1.5,4.5-2.5,4.5-6.1V4.4c0-.5-12.8-.5-12.8,0V27.5l-1.4-.3A84.82,84.82,0,0,0,334.3,25.8Zm2.3,54.6c-9.4,0-14.6-4.7-14.6-13.1V51.2c0-9.3,4.9-13.9,15-13.9a54.71,54.71,0,0,1,11.6,1.5l1.1.2V76.8a1.86,1.86,0,0,1-1.4,2A35.25,35.25,0,0,1,336.6,80.4Z"/><path class="cls-1" d="M373.1,107.7c4.6,7.8,12.8,11.5,25,11.5,17.5,0,26.4-8.8,26.4-26.2V35.7c0-3.7-.5-4.4-4.1-6.1-4-1.8-11.9-3.8-22.1-3.8-18,0-27.2,8.5-27.2,25.2V65c0,16,8.4,24.1,25,24.1a54.76,54.76,0,0,0,14.6-2.2l.9-.3v7.2c0,9.2-4.8,14.1-13.9,14.1-6.5,0-10.5-2-13.5-6.7C384,100.5,372.6,106.9,373.1,107.7Zm25.1-30.2c-9.2,0-14.2-4.6-14.2-12.9V51.5c0-9.5,5-14.1,15.3-14.1A42.25,42.25,0,0,1,410,38.8h.1a2.09,2.09,0,0,1,1.6,2.2V75.6l-.6.1A54.79,54.79,0,0,1,398.2,77.5Z"/><path class="cls-1" d="M462,25.8c-11.5.3-18.7,2.1-22.7,3.7-3.6,1.4-4.3,2.6-4.3,6.3V89.2c0,.5,12.8.5,12.8,0V41.1a2.06,2.06,0,0,1,1.8-2.2,40.58,40.58,0,0,1,11.9-1.5H466c.4,0,.2-11.6,0-11.6Z"/><path class="cls-1" d="M473.1,27.5V68c0,16,8.4,24.1,25.1,24.1,11.9,0,19.4-2.4,24-4.3,3.7-1.5,4.4-2.8,4.4-6.2V27.5c0-.5-12.8-.5-12.8,0V76.1a2.61,2.61,0,0,1-1.9,2.8,37.94,37.94,0,0,1-11.6,1.5c-9.4,0-14.2-4.4-14.2-13v-40C486,27,473.1,27,473.1,27.5Z"/><path class="cls-1" d="M536.9,4.4V82c0,3.7.5,4.4,4.1,6.1,2.1.9,10,3.9,22.1,3.9,18,0,27.2-8.6,27.2-25.5V49.9c0-16-8.4-24.1-25-24.1a62.83,62.83,0,0,0-14.3,2l-1.3.3V4.4C549.7,3.9,536.9,3.9,536.9,4.4Zm25.2,76a34.56,34.56,0,0,1-10.9-1.5,2,2,0,0,1-1.5-2.1v-37l.5-.2a41.49,41.49,0,0,1,13-2.3c9.2,0,14.2,4.6,14.2,12.9V66.1C577.5,75.8,572.4,80.4,562.1,80.4Z"/></svg>